<?xml version="1.0" standalone="no"?>
<!DOCTYPE svg PUBLIC "-//W3C//DTD SVG 20010904//EN"
 "http://www.w3.org/TR/2001/REC-SVG-20010904/DTD/svg10.dtd">
<svg version="1.0" xmlns="http://www.w3.org/2000/svg"
 width="512.000000pt" height="512.000000pt" viewBox="0 0 512.000000 512.000000"
 preserveAspectRatio="xMidYMid meet">

<g transform="translate(0.000000,512.000000) scale(0.100000,-0.100000)"
fill="#000000" stroke="none">
<path d="M355 4765 l-25 -24 0 -299 c0 -271 2 -302 18 -320 29 -35 67 -38 96
-8 l26 25 0 256 0 255 410 0 410 0 0 -698 0 -699 23 -21 23 -22 1225 0 1226 0
21 23 22 23 0 698 0 697 69 -3 70 -3 340 -454 341 -454 0 -602 0 -602 23 -21
c30 -29 62 -28 92 3 l25 24 0 616 c0 443 -3 622 -11 638 -26 48 -730 977 -748
986 -14 8 -585 11 -1836 11 l-1816 0 -24 -25z m1575 -765 l0 -650 -250 0 -250
0 0 650 0 650 250 0 250 0 0 -650z m1760 0 l0 -650 -810 0 -810 0 0 650 0 650
810 0 810 0 0 -650z"/>
<path d="M2995 4445 l-25 -24 0 -421 0 -421 25 -24 24 -25 221 0 221 0 24 25
25 24 0 421 0 421 -25 24 -24 25 -221 0 -221 0 -24 -25z m375 -445 l0 -330
-130 0 -130 0 0 330 0 330 130 0 130 0 0 -330z"/>
<path d="M355 3765 l-25 -24 0 -1681 0 -1681 25 -24 24 -25 2181 0 2181 0 24
25 25 24 0 901 0 901 -25 24 c-30 31 -65 32 -93 2 l-22 -23 0 -857 0 -857
-1730 0 -1730 0 0 730 0 730 1370 0 1370 0 0 -578 0 -579 23 -21 c29 -27 78
-29 100 -4 16 17 17 96 17 929 l0 910 -23 21 -23 22 -1465 0 -1466 0 -21 -23
-22 -23 0 -1057 0 -1057 -290 0 -290 0 0 1639 0 1640 -26 20 c-35 27 -59 26
-89 -4z"/>
<path d="M1555 1645 c-14 -13 -25 -33 -25 -45 0 -11 11 -32 25 -45 l24 -25
981 0 981 0 24 25 c32 31 32 59 0 90 l-24 25 -981 0 -981 0 -24 -25z"/>
<path d="M1555 1245 c-14 -13 -25 -33 -25 -45 0 -11 11 -32 25 -45 l24 -25
981 0 981 0 24 25 c32 31 32 59 0 90 l-24 25 -981 0 -981 0 -24 -25z"/>
<path d="M1555 845 c-31 -30 -32 -65 -2 -93 l23 -22 985 0 986 0 21 23 c29 30
28 62 -3 92 l-24 25 -981 0 -981 0 -24 -25z"/>
</g>
</svg>
