<svg width="27" height="20" viewBox="0 0 27 20" fill="none" xmlns="http://www.w3.org/2000/svg">
<path d="M2.5 20C1.8125 20 1.22396 19.7552 0.734375 19.2656C0.244792 18.776 0 18.1875 0 17.5V2.5C0 1.8125 0.244792 1.22396 0.734375 0.734375C1.22396 0.244792 1.8125 0 2.5 0H10L12.5 2.5H22.5C23.1875 2.5 23.776 2.74479 24.2656 3.23438C24.7552 3.72396 25 4.3125 25 5H11.4688L8.96875 2.5H2.5V17.5L5.5 7.5H26.875L23.6562 18.2188C23.4896 18.7604 23.1823 19.1927 22.7344 19.5156C22.2865 19.8385 21.7917 20 21.25 20H2.5ZM5.125 17.5H21.25L23.5 10H7.375L5.125 17.5ZM5.125 17.5L7.375 10L5.125 17.5ZM2.5 5V2.5V5Z" fill="#B300B3"/>
</svg>
