<svg width="11" height="15" viewBox="0 0 11 15" fill="none" xmlns="http://www.w3.org/2000/svg">
<path d="M5.25 9C4.625 9 4.09375 8.78125 3.65625 8.34375C3.21875 7.90625 3 7.375 3 6.75V2.25C3 1.625 3.21875 1.09375 3.65625 0.65625C4.09375 0.21875 4.625 0 5.25 0C5.875 0 6.40625 0.21875 6.84375 0.65625C7.28125 1.09375 7.5 1.625 7.5 2.25V6.75C7.5 7.375 7.28125 7.90625 6.84375 8.34375C6.40625 8.78125 5.875 9 5.25 9V9M5.25 4.5V4.5V4.5V4.5V4.5V4.5V4.5V4.5V4.5V4.5V4.5V4.5M4.5 14.25V11.9438C3.2 11.7688 2.125 11.1875 1.275 10.2C0.425 9.2125 0 8.0625 0 6.75H1.5C1.5 7.7875 1.86562 8.67187 2.59687 9.40312C3.32812 10.1344 4.2125 10.5 5.25 10.5C6.2875 10.5 7.17187 10.1344 7.90312 9.40312C8.63437 8.67187 9 7.7875 9 6.75H10.5C10.5 8.0625 10.075 9.2125 9.225 10.2C8.375 11.1875 7.3 11.7688 6 11.9438V14.25H4.5V14.25M5.25 7.5C5.4625 7.5 5.64063 7.42813 5.78438 7.28438C5.92813 7.14063 6 6.9625 6 6.75V2.25C6 2.0375 5.92813 1.85938 5.78438 1.71563C5.64063 1.57188 5.4625 1.5 5.25 1.5C5.0375 1.5 4.85937 1.57188 4.71562 1.71563C4.57187 1.85938 4.5 2.0375 4.5 2.25V6.75C4.5 6.9625 4.57187 7.14063 4.71562 7.28438C4.85937 7.42813 5.0375 7.5 5.25 7.5V7.5" fill="#014500"/>
</svg>
