<svg width="28" height="28" viewBox="0 0 28 28" fill="none" xmlns="http://www.w3.org/2000/svg">
<path d="M14 24C12.6167 24 11.3167 23.7375 10.1 23.2125C8.88333 22.6875 7.825 21.975 6.925 21.075C6.025 20.175 5.3125 19.1167 4.7875 17.9C4.2625 16.6833 4 15.3833 4 14C4 12.6 4.2625 11.2958 4.7875 10.0875C5.3125 8.87917 6.025 7.825 6.925 6.925L8.325 8.325C7.59167 9.05833 7.02083 9.90833 6.6125 10.875C6.20417 11.8417 6 12.8833 6 14C6 16.2333 6.775 18.125 8.325 19.675C9.875 21.225 11.7667 22 14 22C16.2333 22 18.125 21.225 19.675 19.675C21.225 18.125 22 16.2333 22 14C22 12.8833 21.7958 11.8417 21.3875 10.875C20.9792 9.90833 20.4083 9.05833 19.675 8.325L21.075 6.925C21.975 7.825 22.6875 8.87917 23.2125 10.0875C23.7375 11.2958 24 12.6 24 14C24 15.3833 23.7375 16.6833 23.2125 17.9C22.6875 19.1167 21.975 20.175 21.075 21.075C20.175 21.975 19.1167 22.6875 17.9 23.2125C16.6833 23.7375 15.3833 24 14 24ZM13 15V4H15V15H13Z" fill="#373928"/>
</svg>
