<?xml version="1.0" standalone="no"?>
<!DOCTYPE svg PUBLIC "-//W3C//DTD SVG 20010904//EN"
 "http://www.w3.org/TR/2001/REC-SVG-20010904/DTD/svg10.dtd">
<svg version="1.0" xmlns="http://www.w3.org/2000/svg"
 width="668.000000pt" height="1002.000000pt" viewBox="0 0 668.000000 1002.000000"
 preserveAspectRatio="xMidYMid meet">

<g transform="translate(0.000000,1002.000000) scale(0.100000,-0.100000)"
fill="#000000" stroke="none">
<path d="M3130 8043 c-14 -3 -38 -15 -55 -26 -16 -12 -35 -21 -41 -19 -6 1
-17 -5 -24 -13 -7 -8 -19 -15 -27 -15 -7 0 -23 -9 -35 -20 -12 -11 -28 -20
-35 -20 -7 0 -13 -4 -13 -10 0 -5 -7 -10 -15 -10 -7 0 -18 -6 -22 -13 -4 -7
-21 -23 -37 -35 -16 -12 -34 -32 -40 -45 -6 -12 -23 -27 -36 -34 -14 -7 -21
-13 -16 -13 5 0 -3 -12 -18 -26 -14 -15 -26 -32 -26 -39 0 -6 -11 -22 -25 -35
-14 -13 -23 -26 -20 -28 6 -6 -57 -122 -66 -122 -4 0 -5 -8 -2 -19 3 -10 -3
-28 -13 -40 -16 -18 -29 -21 -106 -21 -51 0 -90 -4 -93 -11 -4 -6 -27 -9 -51
-8 -24 2 -46 0 -50 -4 -4 -4 -18 -7 -30 -7 -13 0 -25 -4 -28 -9 -3 -5 -21 -12
-40 -15 -19 -4 -47 -13 -62 -21 -16 -7 -40 -19 -54 -25 -14 -5 -38 -19 -55
-30 -16 -11 -39 -24 -50 -29 -11 -5 -33 -23 -49 -40 -17 -17 -36 -31 -43 -31
-7 0 -13 -3 -13 -8 0 -4 -29 -39 -65 -77 -35 -39 -65 -75 -65 -81 0 -6 -7 -17
-15 -24 -8 -7 -15 -19 -15 -28 0 -12 6 -10 25 8 23 22 52 41 85 56 8 4 33 22
55 39 22 18 51 36 65 40 14 4 27 11 30 14 10 12 116 61 132 61 9 0 19 4 23 9
3 5 36 12 73 16 37 3 77 11 89 17 17 8 33 8 62 0 21 -7 54 -12 72 -13 19 0 49
-6 66 -12 33 -12 33 -12 17 -42 -8 -17 -17 -43 -18 -60 -2 -16 -6 -37 -9 -45
-3 -8 -8 -42 -10 -76 -2 -33 -7 -65 -11 -72 -4 -7 -1 -12 8 -12 11 0 16 9 16
30 0 17 5 30 10 30 6 0 10 18 10 39 0 22 5 43 11 47 6 3 9 17 6 30 -2 14 0 27
4 30 5 3 9 23 9 45 l0 39 44 0 c25 0 47 -4 50 -9 7 -11 145 -24 177 -16 27 7
49 45 49 85 0 22 -48 90 -64 90 -3 0 -29 11 -58 24 -29 13 -66 27 -81 30 -36
8 -43 28 -24 69 9 17 16 36 15 41 0 5 4 12 9 15 15 11 34 52 28 61 -4 6 -1 10
4 10 6 0 11 7 11 15 0 8 5 15 10 15 6 0 10 8 10 18 0 9 9 23 20 30 11 6 17 17
15 24 -3 7 11 24 30 37 20 13 48 38 63 56 16 17 35 35 43 38 8 4 28 16 44 26
17 11 41 20 56 20 14 1 31 7 37 14 17 16 388 17 423 0 13 -6 44 -20 69 -31 25
-11 56 -29 69 -39 53 -41 101 -86 101 -95 0 -5 11 -24 24 -41 14 -18 28 -44
31 -59 4 -16 11 -28 16 -28 5 0 9 -13 9 -28 0 -15 5 -33 12 -40 15 -15 16
-275 1 -294 -11 -13 -21 -69 -26 -138 -3 -40 -13 -65 -39 -99 -22 -29 -23 -49
-3 -88 11 -23 26 -33 58 -41 65 -17 155 -23 162 -12 8 12 132 13 139 1 3 -4
31 -11 62 -14 31 -3 62 -11 67 -16 6 -6 17 -11 24 -11 8 0 39 -16 69 -35 30
-19 57 -35 60 -35 25 0 217 -199 289 -299 62 -87 35 11 -45 166 -28 54 -56
100 -61 101 -5 2 -9 9 -9 14 0 14 -96 116 -170 181 -50 45 -123 87 -149 87 -6
0 -11 4 -11 10 0 5 -16 12 -35 16 -19 3 -38 10 -41 15 -3 5 -21 9 -40 9 -19 0
-34 5 -34 10 0 6 -16 10 -35 10 -32 0 -35 2 -35 29 0 17 4 32 9 36 6 3 8 18 7
33 -2 15 -4 42 -5 61 0 19 -4 31 -7 28 -4 -3 -6 -34 -5 -67 1 -34 -3 -59 -8
-56 -4 3 -7 -5 -6 -18 3 -27 -16 -35 -70 -31 -16 1 -45 3 -62 3 -32 2 -32 3
-15 20 10 10 26 50 36 88 9 38 31 98 47 132 28 57 31 71 26 125 -8 92 -18 141
-29 148 -6 4 -7 12 -4 18 8 13 -3 56 -11 47 -7 -7 -33 41 -33 60 0 7 -9 18
-20 24 -11 6 -19 15 -17 20 4 16 -125 141 -140 135 -11 -3 -13 -1 -9 10 3 9 0
15 -10 15 -9 0 -28 9 -44 20 -15 11 -30 17 -33 13 -4 -3 -18 2 -33 11 -17 12
-35 15 -51 11 -21 -5 -24 -3 -19 10 4 13 1 15 -14 10 -11 -4 -20 -2 -20 4 0 6
-10 11 -22 10 -13 0 -43 4 -68 10 -46 10 -135 12 -180 4z m-1050 -733 c-8 -5
-19 -10 -25 -10 -5 0 -3 5 5 10 8 5 20 10 25 10 6 0 3 -5 -5 -10z m-53 -26
c-3 -3 -12 -4 -19 -1 -8 3 -5 6 6 6 11 1 17 -2 13 -5z"/>
<path d="M3958 7326 c-7 -39 -4 -55 8 -44 3 3 4 23 2 44 l-3 39 -7 -39z"/>
<path d="M3879 6848 c-6 -12 -4 -48 2 -48 5 0 9 11 9 25 0 21 -6 33 -11 23z"/>
<path d="M3670 6825 c0 -8 2 -15 4 -15 2 0 6 7 10 15 3 8 1 15 -4 15 -6 0 -10
-7 -10 -15z"/>
<path d="M3858 6715 c-1 -36 0 -65 5 -65 4 0 7 29 7 65 0 36 -2 65 -4 65 -2 0
-6 -29 -8 -65z"/>
<path d="M3650 6750 c0 -5 5 -10 11 -10 5 0 7 5 4 10 -3 6 -8 10 -11 10 -2 0
-4 -4 -4 -10z"/>
<path d="M2085 6684 c-162 -22 -279 -133 -278 -264 1 -123 84 -217 243 -276
137 -51 319 -9 414 96 121 135 63 317 -129 406 -70 32 -175 48 -250 38z m-75
-64 c0 -5 -4 -10 -10 -10 -5 0 -10 5 -10 10 0 6 5 10 10 10 6 0 10 -4 10 -10z
m-68 -44 c-20 -19 -39 -32 -41 -30 -7 7 52 64 66 64 7 0 -4 -15 -25 -34z"/>
<path d="M3705 6355 c-87 -26 -154 -74 -185 -135 -24 -48 -26 -135 -5 -188 21
-49 99 -128 157 -158 74 -38 189 -58 252 -44 133 31 196 73 236 157 27 58 24
130 -9 194 -29 56 -45 74 -100 112 -97 67 -243 93 -346 62z m-8 -51 c-3 -3
-12 -4 -19 -1 -8 3 -5 6 6 6 11 1 17 -2 13 -5z m-70 -34 c-19 -16 -39 -30 -43
-30 -11 1 57 60 68 60 5 0 -7 -13 -25 -30z"/>
<path d="M2830 6340 c0 -5 5 -10 11 -10 5 0 7 5 4 10 -3 6 -8 10 -11 10 -2 0
-4 -4 -4 -10z"/>
<path d="M2690 6070 c-8 -5 -10 -10 -5 -10 6 0 17 5 25 10 8 5 11 10 5 10 -5
0 -17 -5 -25 -10z"/>
<path d="M2535 5970 c-3 -5 -1 -10 4 -10 6 0 11 5 11 10 0 6 -2 10 -4 10 -3 0
-8 -4 -11 -10z"/>
<path d="M1920 5930 c0 -5 5 -10 11 -10 5 0 7 5 4 10 -3 6 -8 10 -11 10 -2 0
-4 -4 -4 -10z"/>
<path d="M2460 5930 c0 -5 4 -10 9 -10 6 0 13 5 16 10 3 6 -1 10 -9 10 -9 0
-16 -4 -16 -10z"/>
<path d="M2058 5893 c12 -2 32 -2 45 0 12 2 2 4 -23 4 -25 0 -35 -2 -22 -4z"/>
<path d="M2335 5880 c-11 -5 -55 -9 -97 -9 l-78 -1 0 -508 c0 -279 4 -512 9
-517 5 -6 11 -124 15 -264 3 -140 10 -259 15 -265 8 -10 12 -42 24 -216 3 -30
7 -62 10 -70 3 -8 8 -42 11 -75 13 -154 27 -269 36 -285 6 -11 10 -32 10 -49
0 -16 4 -32 9 -35 4 -3 12 -38 15 -77 4 -39 11 -79 16 -88 14 -30 28 -86 35
-141 3 -30 10 -65 16 -77 5 -13 13 -33 18 -45 6 -13 13 -39 17 -58 3 -19 10
-41 14 -50 20 -41 29 -69 36 -110 3 -25 15 -57 25 -72 11 -14 19 -29 19 -33 0
-18 78 -180 117 -243 18 -29 33 -55 33 -59 0 -4 18 -28 40 -54 22 -26 40 -51
40 -56 0 -11 143 -153 154 -153 4 0 25 -12 45 -27 66 -51 102 -64 221 -84 103
-17 390 -9 390 10 0 5 24 11 53 14 28 3 70 14 92 25 22 11 56 27 75 36 22 10
28 16 16 16 -24 0 -97 -21 -112 -32 -18 -13 -115 -21 -269 -22 l-140 -1 -89
39 c-49 22 -123 62 -165 89 -82 54 -257 223 -281 272 -8 17 -35 59 -61 95 -25
36 -53 85 -62 110 -33 92 -97 310 -136 460 -40 152 -44 173 -56 275 -3 28 -20
118 -37 200 -17 83 -33 173 -35 200 -2 28 -12 131 -23 230 -10 99 -22 212 -26
250 -6 62 -6 144 1 310 4 78 17 165 27 171 5 3 8 2 7 -3 -5 -31 4 -72 20 -90
19 -20 36 -99 50 -240 10 -93 21 -88 21 10 0 53 -4 87 -11 89 -8 3 -13 181
-17 611 -6 659 -2 621 -57 597z"/>
<path d="M4355 5740 c-3 -5 -1 -10 4 -10 6 0 11 5 11 10 0 6 -2 10 -4 10 -3 0
-8 -4 -11 -10z"/>
<path d="M4280 5680 c0 -5 5 -10 10 -10 6 0 10 5 10 10 0 6 -4 10 -10 10 -5 0
-10 -4 -10 -10z"/>
<path d="M4225 5650 c-3 -5 -1 -10 4 -10 6 0 11 5 11 10 0 6 -2 10 -4 10 -3 0
-8 -4 -11 -10z"/>
<path d="M3534 5628 c-9 -15 -7 -1004 2 -1048 4 -19 9 -78 11 -130 2 -52 9
-99 14 -105 5 -5 9 -86 9 -180 0 -93 5 -177 10 -185 8 -13 10 -12 10 3 0 14 9
17 44 17 l45 0 12 58 c8 38 13 154 13 344 1 157 4 289 8 293 8 9 18 -137 14
-216 -1 -37 0 -97 4 -135 4 -40 8 97 10 326 4 438 3 421 12 435 3 6 7 66 9
135 2 69 6 130 10 135 4 6 9 48 10 94 5 96 12 88 -106 121 -44 12 -92 27 -107
35 -19 9 -30 10 -34 3z m163 -930 c-3 -8 -6 -5 -6 6 -1 11 2 17 5 13 3 -3 4
-12 1 -19z"/>
<path d="M4150 5620 c-13 -8 -12 -10 3 -10 9 0 17 5 17 10 0 12 -1 12 -20 0z"/>
<path d="M4095 5600 c-3 -5 1 -10 9 -10 9 0 16 5 16 10 0 6 -4 10 -9 10 -6 0
-13 -4 -16 -10z"/>
<path d="M4010 5586 c0 -8 51 -13 56 -5 3 5 -9 9 -25 9 -17 0 -31 -2 -31 -4z"/>
<path d="M3878 5563 c18 -2 45 -2 60 0 15 2 0 4 -33 4 -33 0 -45 -2 -27 -4z"/>
<path d="M2595 5385 c-16 -9 -36 -27 -42 -42 -16 -33 -18 -233 -3 -233 6 0 10
-86 10 -238 0 -131 3 -242 7 -245 4 -4 5 -57 4 -117 -2 -73 1 -110 8 -110 7 0
11 -31 11 -85 0 -47 4 -85 9 -85 4 0 11 -46 14 -101 3 -56 10 -106 16 -112 6
-6 11 -26 11 -43 0 -18 4 -35 9 -38 4 -3 11 -23 14 -43 4 -21 15 -56 26 -79
11 -22 23 -54 27 -70 4 -16 13 -36 20 -44 7 -9 20 -31 29 -50 27 -59 38 -74
90 -126 48 -48 154 -124 173 -124 5 0 23 -7 39 -15 44 -22 291 -22 335 0 17 8
35 15 40 15 4 0 31 16 58 35 27 19 54 35 60 35 5 0 10 6 10 13 0 8 12 24 26
38 14 13 30 33 35 44 5 11 18 34 28 50 23 35 25 45 11 45 -6 0 -14 -8 -17 -17
-4 -10 -19 -30 -34 -45 -15 -14 -25 -28 -23 -31 2 -2 -14 -12 -36 -23 -22 -10
-40 -23 -40 -29 0 -5 -15 -10 -33 -11 -17 0 -51 -10 -75 -22 -107 -52 -236
-53 -344 -2 -73 34 -164 117 -204 187 -15 26 -31 50 -34 53 -5 4 -18 29 -25
50 -2 6 -14 36 -32 80 -31 73 -68 234 -59 249 3 5 -1 12 -10 15 -8 3 -12 11
-9 16 4 6 2 16 -3 23 -6 7 -18 50 -27 96 -21 104 -15 171 20 216 13 19 20 35
15 37 -5 2 -6 9 -1 17 12 19 34 3 28 -20 -6 -23 8 -26 17 -3 3 9 6 190 6 403
0 245 4 391 10 397 15 15 -9 58 -45 83 -36 25 -78 27 -120 6z"/>
<path d="M4254 5348 c-4 -13 -15 -29 -26 -36 -10 -7 -16 -17 -13 -21 2 -5 -4
-16 -15 -26 -11 -10 -20 -24 -20 -32 0 -7 -4 -13 -10 -13 -5 0 -13 -18 -16
-40 -4 -22 -10 -40 -14 -40 -4 0 -11 -10 -15 -22 -4 -13 -9 -30 -12 -38 -2 -8
-7 -27 -10 -42 -3 -16 -9 -28 -14 -28 -5 0 -9 -11 -9 -24 0 -14 -5 -28 -11
-32 -6 -3 -9 -15 -6 -25 3 -11 1 -19 -4 -19 -5 0 -9 -16 -9 -35 0 -19 -4 -35
-10 -35 -5 0 -10 -17 -10 -38 0 -21 -3 -42 -7 -46 -13 -13 -17 -108 -15 -386
1 -171 5 -266 12 -268 6 -2 10 -43 10 -101 0 -53 4 -101 10 -107 11 -11 29
-754 18 -761 -11 -6 -10 -121 1 -128 5 -3 11 9 14 27 l3 33 8 -32 c5 -18 12
-33 16 -33 4 0 13 -21 19 -47 7 -25 20 -57 30 -70 l19 -23 15 24 c24 36 29 89
33 360 4 204 2 252 -10 265 -8 9 -17 36 -21 60 -4 24 -15 51 -24 60 -9 9 -16
28 -15 44 1 15 -3 27 -8 27 -5 0 -6 5 -3 10 4 6 2 16 -3 23 -10 12 -30 174
-38 311 -3 44 -9 87 -13 95 -4 9 -9 35 -10 57 -1 23 -4 52 -7 65 -24 108 -23
424 1 554 2 11 4 33 4 48 1 16 5 26 11 22 6 -3 10 1 10 9 0 8 8 17 18 19 15 4
15 5 -1 6 -10 0 -17 7 -14 14 2 6 11 11 19 9 18 -3 31 24 22 41 -5 8 -4 9 3 2
12 -12 26 -78 15 -71 -14 9 2 -498 18 -552 4 -17 6 -32 4 -34 -2 -2 3 -53 11
-114 65 -472 62 -446 64 -537 0 -32 4 -56 9 -54 4 3 8 -24 8 -60 1 -40 -2 -60
-7 -52 -7 11 -9 11 -9 -2 0 -8 4 -19 10 -25 13 -13 24 -92 25 -166 0 -98 20
-59 23 45 2 72 -1 99 -10 102 -10 4 -12 28 -10 91 2 48 -1 91 -6 96 -6 6 -8
43 -5 88 4 52 2 79 -6 84 -6 4 -11 37 -11 81 0 47 -4 75 -12 77 -17 6 -18 750
0 755 7 3 12 23 12 53 0 27 4 51 9 54 5 4 12 30 16 59 3 28 10 61 14 72 26 63
31 77 31 90 0 20 33 95 42 95 3 0 10 15 13 33 4 17 12 37 17 44 6 7 5 14 -2
18 -5 3 -10 17 -10 30 0 13 -8 37 -17 54 -16 28 -23 31 -65 31 -40 0 -48 -3
-54 -22z"/>
<path d="M2748 4433 c4 -30 6 -34 12 -18 7 21 2 55 -9 55 -4 0 -5 -17 -3 -37z"/>
<path d="M2420 4411 c0 -17 2 -31 4 -31 8 0 13 51 5 56 -5 3 -9 -9 -9 -25z"/>
<path d="M3727 3810 c-3 -11 -1 -23 4 -26 5 -3 9 6 9 20 0 31 -6 34 -13 6z"/>
<path d="M3710 3763 c0 -13 5 -23 10 -23 13 0 13 11 0 30 -8 12 -10 11 -10 -7z"/>
<path d="M3690 3716 c0 -9 5 -16 10 -16 6 0 10 4 10 9 0 6 -4 13 -10 16 -5 3
-10 -1 -10 -9z"/>
<path d="M3680 3680 c0 -5 5 -10 11 -10 5 0 7 5 4 10 -3 6 -8 10 -11 10 -2 0
-4 -4 -4 -10z"/>
<path d="M3822 2288 c-14 -14 -16 -28 -3 -28 9 0 24 30 18 36 -2 2 -9 -2 -15
-8z"/>
</g>
</svg>
