<svg width="12" height="12" viewBox="0 0 12 12" fill="none" xmlns="http://www.w3.org/2000/svg">
<path d="M1.425 11.4C1.03312 11.4 0.697656 11.2605 0.418594 10.9814C0.139531 10.7023 0 10.3669 0 9.975C0 9.58312 0.139531 9.24766 0.418594 8.96859C0.697656 8.68953 1.03312 8.55 1.425 8.55C1.81687 8.55 2.15234 8.68953 2.43141 8.96859C2.71047 9.24766 2.85 9.58312 2.85 9.975C2.85 10.3669 2.71047 10.7023 2.43141 10.9814C2.15234 11.2605 1.81687 11.4 1.425 11.4ZM5.7 11.4C5.30813 11.4 4.97266 11.2605 4.69359 10.9814C4.41453 10.7023 4.275 10.3669 4.275 9.975C4.275 9.58312 4.41453 9.24766 4.69359 8.96859C4.97266 8.68953 5.30813 8.55 5.7 8.55C6.09187 8.55 6.42734 8.68953 6.70641 8.96859C6.98547 9.24766 7.125 9.58312 7.125 9.975C7.125 10.3669 6.98547 10.7023 6.70641 10.9814C6.42734 11.2605 6.09187 11.4 5.7 11.4ZM9.975 11.4C9.58312 11.4 9.24766 11.2605 8.96859 10.9814C8.68953 10.7023 8.55 10.3669 8.55 9.975C8.55 9.58312 8.68953 9.24766 8.96859 8.96859C9.24766 8.68953 9.58312 8.55 9.975 8.55C10.3669 8.55 10.7023 8.68953 10.9814 8.96859C11.2605 9.24766 11.4 9.58312 11.4 9.975C11.4 10.3669 11.2605 10.7023 10.9814 10.9814C10.7023 11.2605 10.3669 11.4 9.975 11.4ZM1.425 7.125C1.03312 7.125 0.697656 6.98547 0.418594 6.70641C0.139531 6.42734 0 6.09187 0 5.7C0 5.30813 0.139531 4.97266 0.418594 4.69359C0.697656 4.41453 1.03312 4.275 1.425 4.275C1.81687 4.275 2.15234 4.41453 2.43141 4.69359C2.71047 4.97266 2.85 5.30813 2.85 5.7C2.85 6.09187 2.71047 6.42734 2.43141 6.70641C2.15234 6.98547 1.81687 7.125 1.425 7.125ZM5.7 7.125C5.30813 7.125 4.97266 6.98547 4.69359 6.70641C4.41453 6.42734 4.275 6.09187 4.275 5.7C4.275 5.30813 4.41453 4.97266 4.69359 4.69359C4.97266 4.41453 5.30813 4.275 5.7 4.275C6.09187 4.275 6.42734 4.41453 6.70641 4.69359C6.98547 4.97266 7.125 5.30813 7.125 5.7C7.125 6.09187 6.98547 6.42734 6.70641 6.70641C6.42734 6.98547 6.09187 7.125 5.7 7.125ZM9.975 7.125C9.58312 7.125 9.24766 6.98547 8.96859 6.70641C8.68953 6.42734 8.55 6.09187 8.55 5.7C8.55 5.30813 8.68953 4.97266 8.96859 4.69359C9.24766 4.41453 9.58312 4.275 9.975 4.275C10.3669 4.275 10.7023 4.41453 10.9814 4.69359C11.2605 4.97266 11.4 5.30813 11.4 5.7C11.4 6.09187 11.2605 6.42734 10.9814 6.70641C10.7023 6.98547 10.3669 7.125 9.975 7.125ZM1.425 2.85C1.03312 2.85 0.697656 2.71047 0.418594 2.43141C0.139531 2.15234 0 1.81687 0 1.425C0 1.03312 0.139531 0.697656 0.418594 0.418594C0.697656 0.139531 1.03312 0 1.425 0C1.81687 0 2.15234 0.139531 2.43141 0.418594C2.71047 0.697656 2.85 1.03312 2.85 1.425C2.85 1.81687 2.71047 2.15234 2.43141 2.43141C2.15234 2.71047 1.81687 2.85 1.425 2.85ZM5.7 2.85C5.30813 2.85 4.97266 2.71047 4.69359 2.43141C4.41453 2.15234 4.275 1.81687 4.275 1.425C4.275 1.03312 4.41453 0.697656 4.69359 0.418594C4.97266 0.139531 5.30813 0 5.7 0C6.09187 0 6.42734 0.139531 6.70641 0.418594C6.98547 0.697656 7.125 1.03312 7.125 1.425C7.125 1.81687 6.98547 2.15234 6.70641 2.43141C6.42734 2.71047 6.09187 2.85 5.7 2.85ZM9.975 2.85C9.58312 2.85 9.24766 2.71047 8.96859 2.43141C8.68953 2.15234 8.55 1.81687 8.55 1.425C8.55 1.03312 8.68953 0.697656 8.96859 0.418594C9.24766 0.139531 9.58312 0 9.975 0C10.3669 0 10.7023 0.139531 10.9814 0.418594C11.2605 0.697656 11.4 1.03312 11.4 1.425C11.4 1.81687 11.2605 2.15234 10.9814 2.43141C10.7023 2.71047 10.3669 2.85 9.975 2.85Z" fill="white"/>
</svg>
